<?xml version="1.0" encoding="UTF-8"?>
<svg width="25px" height="11px" viewBox="0 0 25 11" version="1.1" xmlns="http://www.w3.org/2000/svg" xmlns:xlink="http://www.w3.org/1999/xlink">
    <!-- Generator: Sketch 50.2 (55047) - http://www.bohemiancoding.com/sketch -->
    <title>z</title>
    <desc>Created with Sketch.</desc>
    <defs></defs>
    <g id="Page-1" stroke="none" stroke-width="1" fill="none" fill-rule="evenodd">
        <g id="Artboard" transform="translate(-994.000000, -840.000000)" fill="#6EC5AB" fill-rule="nonzero">
            <g id="Group-3" transform="translate(902.000000, 832.000000)">
                <g id="left-arrow" transform="translate(104.500000, 13.500000) scale(-1, 1) translate(-104.500000, -13.500000) translate(92.000000, 8.000000)">
                    <path d="M23.7412232,4.698034 L2.45702411,4.697968 L5.66604323,1.300552 C5.94717373,1.003112 5.94717373,0.520608 5.66604323,0.223212 C5.38491272,-0.074404 4.92913549,-0.074404 4.64842062,0.223212 L0.21084788,4.921092 C-0.0702826268,5.218532 -0.0702826268,5.70108 0.21084788,5.998432 L4.64842062,10.696532 C4.78894431,10.845384 4.97310889,10.9197 5.15723192,10.9197 C5.34135495,10.9197 5.52551953,10.845384 5.66604323,10.696532 C5.94717373,10.399092 5.94717373,9.916588 5.66604323,9.619236 L2.45702411,6.221644 L23.7412232,6.22171 C24.1386463,6.22171 24.4609239,5.880578 24.4609239,5.45985 C24.4609239,5.039122 24.1386879,4.698034 23.7412232,4.698034 Z" id="z"></path>
                </g>
            </g>
        </g>
    </g>
</svg>