<?xml version="1.0" encoding="UTF-8"?>
<svg width="9px" height="18px" viewBox="0 0 9 18" version="1.1" xmlns="http://www.w3.org/2000/svg" xmlns:xlink="http://www.w3.org/1999/xlink">
    <!-- Generator: Sketch 49.3 (51167) - http://www.bohemiancoding.com/sketch -->
    <title>Page 1</title>
    <desc>Created with Sketch.</desc>
    <defs></defs>
    <g id="Desktop-Design" stroke="none" stroke-width="1" fill="none" fill-rule="evenodd">
        <g id="5-Supplied" transform="translate(-973.000000, -2019.000000)" fill="#394C5D">
            <g id="Group-5" transform="translate(0.000000, 1828.000000)">
                <path d="M975.25,209 L978.625,209 L978.625,200 L981.683594,200 L982,196.90625 L978.625,196.90625 L978.625,195.359375 C978.625,194.890624 978.695312,194.562501 978.835938,194.375 C978.976562,194.187499 979.316402,194.09375 979.855469,194.09375 L982,194.09375 L982,191 L978.90625,191 C977.499993,191 976.539065,191.333981 976.023438,192.001952 C975.50781,192.669925 975.25,193.695306 975.25,195.078125 L975.25,196.90625 L973,196.90625 L973,200 L975.25,200 L975.25,209 Z" id="Page-1"></path>
            </g>
        </g>
    </g>
</svg>