<?xml version="1.0" encoding="UTF-8"?>
<svg width="24px" height="21px" viewBox="0 0 24 21" version="1.1" xmlns="http://www.w3.org/2000/svg" xmlns:xlink="http://www.w3.org/1999/xlink">
    <!-- Generator: Sketch 50.2 (55047) - http://www.bohemiancoding.com/sketch -->
    <title>Shape</title>
    <desc>Created with Sketch.</desc>
    <defs></defs>
    <g id="Page-1" stroke="none" stroke-width="1" fill="none" fill-rule="evenodd">
        <g id="Artboard" transform="translate(-564.000000, -1025.000000)" fill="#394C5D" fill-rule="nonzero">
            <path d="M585.988532,1026.94398 C584.732763,1025.69004 583.063374,1025 581.287374,1025 C579.511121,1025 577.841542,1025.69004 576.585332,1026.94398 L575.966511,1027.562 L575.347689,1026.94398 C574.091858,1025.69004 572.4219,1025 570.646026,1025 C568.870216,1025 567.200132,1025.69004 565.944426,1026.94398 C563.351858,1029.53291 563.351858,1033.74521 565.944426,1036.33313 L575.234321,1045.60914 C575.386216,1045.76137 575.575311,1045.85458 575.772868,1045.89046 C575.839121,1045.90351 575.905753,1045.90957 575.972511,1045.90957 C576.235311,1045.90957 576.498553,1045.80949 576.6987,1045.60914 L585.988595,1036.33313 C588.581289,1033.74521 588.581289,1029.53291 585.988532,1026.94398 Z M584.536153,1034.88299 L575.966574,1043.43983 L567.396805,1034.88299 C565.605142,1033.09427 565.605142,1030.18391 567.396805,1028.39424 C568.264658,1027.52782 569.418932,1027.05125 570.646026,1027.05125 C571.873247,1027.05125 573.027205,1027.52782 573.894742,1028.39424 L575.240321,1029.73824 C575.626026,1030.1228 576.3075,1030.1228 576.693142,1029.73824 L578.038216,1028.39424 C578.905816,1027.52782 580.059837,1027.05125 581.287437,1027.05125 C582.514658,1027.05125 583.668553,1027.52782 584.536153,1028.39424 C586.328005,1030.18391 586.328005,1033.09421 584.536153,1034.88299 Z" id="Shape"></path>
        </g>
    </g>
</svg>