<?xml version="1.0" encoding="UTF-8"?>
<svg width="15px" height="15px" viewBox="0 0 15 15" version="1.1" xmlns="http://www.w3.org/2000/svg" xmlns:xlink="http://www.w3.org/1999/xlink">
    <!-- Generator: Sketch 49.3 (51167) - http://www.bohemiancoding.com/sketch -->
    <title>Page 1</title>
    <desc>Created with Sketch.</desc>
    <defs></defs>
    <g id="Desktop-Design" stroke="none" stroke-width="1" fill="none" fill-rule="evenodd">
        <g id="5-Supplied" transform="translate(-906.000000, -2021.000000)" fill="#394C5D">
            <g id="Group-5" transform="translate(0.000000, 1828.000000)">
                <path d="M919.300781,205.675781 L919.300781,199.347657 L917.982423,199.347657 C918.112631,199.757815 918.177733,200.184242 918.177733,200.626953 C918.177733,201.44727 917.969403,202.204099 917.552734,202.897462 C917.136066,203.590825 916.569665,204.139321 915.853515,204.542969 C915.137367,204.946618 914.356123,205.148438 913.509766,205.148438 C912.227206,205.148438 911.130212,204.707362 910.218749,203.825196 C909.307288,202.943029 908.851562,201.87696 908.851562,200.626953 C908.851562,200.184242 908.916666,199.757815 909.046875,199.347657 L907.669922,199.347657 L907.669922,205.675781 C907.669922,205.845053 907.726887,205.986653 907.84082,206.100586 C907.954753,206.214519 908.096353,206.271484 908.265624,206.271484 L918.705078,206.271484 C918.867839,206.271484 919.007811,206.214519 919.125,206.100586 C919.242188,205.986653 919.300781,205.845053 919.300781,205.675781 Z M915.638672,202.541015 C916.231123,201.968096 916.527344,201.277999 916.527344,200.470704 C916.527344,199.663407 916.232751,198.974937 915.643554,198.405273 C915.05436,197.835609 914.343103,197.550781 913.509766,197.550781 C912.682939,197.550781 911.974937,197.835609 911.385743,198.405273 C910.796546,198.974937 910.501954,199.663407 910.501954,200.470704 C910.501954,201.277999 910.796546,201.966468 911.385743,202.536133 C911.974937,203.105797 912.682939,203.390625 913.509766,203.390625 C914.343103,203.390625 915.052732,203.107424 915.638672,202.541015 Z M919.300781,196.955079 L919.300781,195.343751 C919.300781,195.161458 919.235678,195.003582 919.105468,194.870118 C918.975259,194.736654 918.815755,194.669922 918.626952,194.669922 L916.927735,194.669922 C916.738932,194.669922 916.579428,194.736654 916.449219,194.870118 C916.31901,195.003582 916.253906,195.161458 916.253906,195.343751 L916.253906,196.955079 C916.253906,197.143882 916.31901,197.303386 916.449219,197.433594 C916.579428,197.563803 916.738932,197.628907 916.927735,197.628907 L918.626952,197.628907 C918.815755,197.628907 918.975259,197.563803 919.105468,197.433594 C919.235678,197.303386 919.300781,197.143882 919.300781,196.955079 Z M921,194.923827 L921,206.076172 C921,206.603518 920.811199,207.055988 920.433593,207.433594 C920.055987,207.8112 919.603518,208 919.076173,208 L907.923828,208 C907.396482,208 906.944012,207.8112 906.566406,207.433594 C906.1888,207.055988 906,206.603518 906,206.076172 L906,194.923827 C906,194.396482 906.1888,193.944013 906.566406,193.566407 C906.944012,193.188801 907.396482,193 907.923828,193 L919.076173,193 C919.603518,193 920.055987,193.188801 920.433593,193.566407 C920.811199,193.944013 921,194.396482 921,194.923827 Z" id="Page-1"></path>
            </g>
        </g>
    </g>
</svg>