<?xml version="1.0" encoding="UTF-8"?>
<svg width="18px" height="18px" viewBox="0 0 18 18" version="1.1" xmlns="http://www.w3.org/2000/svg" xmlns:xlink="http://www.w3.org/1999/xlink">
    <!-- Generator: Sketch 49.3 (51167) - http://www.bohemiancoding.com/sketch -->
    <title>Linkedin</title>
    <desc>Created with Sketch.</desc>
    <defs></defs>
    <g id="linkedin" stroke="none" stroke-width="1" fill="none" fill-rule="evenodd">
        <path d="M4.08984441,5.58984288 L4.08984441,17.2031235 L0.222656249,17.2031235 L0.222656249,5.58984288 L4.08984441,5.58984288 Z M4.33593816,2.00390396 C4.34375016,2.57421932 4.14648666,3.05077756 3.7441398,3.4335918 C3.34179556,3.81640605 2.81250369,4.00781054 2.15625003,4.00781054 L2.13281246,4.00781054 C1.49218437,4.00781054 0.976564555,3.81640605 0.585937525,3.4335918 C0.195310548,3.05077756 0,2.57421932 0,2.00390396 C0,1.4257766 0.201169863,0.947265355 0.603515575,0.568357113 C1.00586139,0.189448871 1.53124673,0 2.17968734,0 C2.82812769,0 3.34765456,0.189448871 3.7382808,0.568357113 C4.12890704,0.947265355 4.32812616,1.4257766 4.33593816,2.00390396 Z M18,10.5468744 L18,17.2031235 L14.1445313,17.2031235 L14.1445313,10.9921873 C14.1445313,10.1718695 13.9863305,9.52929843 13.6699208,9.06445294 C13.3535138,8.59960482 12.8593786,8.36718733 12.1874994,8.36718733 C11.6953093,8.36718733 11.2832053,8.50194957 10.9511716,8.77148194 C10.619138,9.04101694 10.3710939,9.37499568 10.2070314,9.77343655 C10.1210942,10.0078123 10.0781255,10.3242167 10.0781255,10.7226549 L10.0781255,17.2031235 L6.22265687,17.2031235 C6.23828087,14.0859203 6.24609287,11.5586019 6.24609287,9.62109205 C6.24609287,7.68358221 6.24218687,6.52734324 6.23437487,6.15234362 L6.22265687,5.58984288 L10.0781255,5.58984288 L10.0781255,7.27734247 L10.0546869,7.27734247 C10.2109374,7.0273401 10.3710939,6.80859361 10.5351564,6.62109249 C10.6992189,6.43359137 10.919921,6.23046887 11.1972654,6.01171712 C11.4746098,5.79296538 11.8144501,5.62304651 12.216797,5.50195264 C12.6191412,5.38085876 13.0664045,5.32031051 13.5585946,5.32031051 C14.8945384,5.32031051 15.9687462,5.76366513 16.7812493,6.65039011 C17.5937524,7.53711247 18,8.83592832 18,10.5468744 Z" id="Linkedin" fill="#394C5D"></path>
    </g>
</svg>
