<?xml version="1.0" encoding="UTF-8"?>
<svg width="28px" height="28px" viewBox="0 0 28 28" version="1.1" xmlns="http://www.w3.org/2000/svg" xmlns:xlink="http://www.w3.org/1999/xlink">
    <!-- Generator: Sketch 49.3 (51167) - http://www.bohemiancoding.com/sketch -->
    <title>Artboard Copy 3</title>
    <desc>Created with Sketch.</desc>
    <defs></defs>
    <g id="Artboard-Copy-3" stroke="none" stroke-width="1" fill="none" fill-rule="evenodd">
        <g id="copy-two-paper-sheets-interface-symbol" transform="translate(2.000000, 0.000000)" fill="#A9B4BF" fill-rule="nonzero">
            <path d="M18.38856,0 C18.28016,0 7.89712,0 7.89712,0 C6.04712,0 4.4,1.697 4.4,3.49716 L3.38932,3.52076 C1.5402,3.52076 0.02856,5.19412 0.02856,6.99428 L0.02856,24.48 C0.02856,26.28016 1.67572,27.97712 3.52572,27.97712 L16.64,27.97712 C18.48996,27.97712 20.13712,26.28016 20.13712,24.48 L21.0114,24.48 C22.8614,24.48 24.50856,22.78304 24.50856,20.98288 L24.50856,7.01528 L18.38856,0 Z M16.64,26.2286 L3.52572,26.2286 C2.60772,26.2286 1.77716,25.37096 1.77716,24.48 L1.77716,6.99428 C1.77716,6.1034 2.52468,5.27456 3.44268,5.27456 L4.4,5.24572 L4.4,20.98288 C4.4,22.78304 6.04712,24.48 7.89712,24.48 L18.38856,24.48 C18.38856,25.37092 17.55796,26.2286 16.64,26.2286 Z M22.76,20.98288 C22.76,21.87372 21.9294,22.7314 21.0114,22.7314 L7.89712,22.7314 C6.97912,22.7314 6.14856,21.87376 6.14856,20.98288 L6.14856,3.49716 C6.14856,2.60628 6.97912,1.7486 7.89712,1.7486 L16.64,1.7486 C16.62596,3.76208 16.64,5.2676 16.64,5.2676 C16.64,7.08436 18.27488,8.74288 20.13712,8.74288 C20.13712,8.74288 21.06564,8.74288 22.76,8.74288 L22.76,20.98288 Z M20.13712,6.99428 C19.20604,6.99428 18.38856,5.30256 18.38856,4.39504 C18.38856,4.39504 18.38856,3.47528 18.38856,1.77568 L18.38856,1.77392 L22.76,6.99428 L20.13712,6.99428 Z M18.38856,12.25576 L10.52,12.25576 C10.0374,12.25576 9.64572,12.64656 9.64572,13.12916 C9.64572,13.61176 10.0374,14.00256 10.52,14.00256 L18.38856,14.00256 C18.87116,14.00256 19.26284,13.61172 19.26284,13.12916 C19.26284,12.64656 18.87116,12.25576 18.38856,12.25576 Z M18.38856,16.6228 L10.52,16.6228 C10.0374,16.6228 9.64572,17.0136 9.64572,17.49616 C9.64572,17.9788 10.0374,18.3696 10.52,18.3696 L18.38856,18.3696 C18.87116,18.3696 19.26284,17.9788 19.26284,17.49616 C19.26284,17.0136 18.87116,16.6228 18.38856,16.6228 Z" id="Shape"></path>
        </g>
    </g>
</svg>