<?xml version="1.0" encoding="UTF-8"?>
<svg width="23px" height="28px" viewBox="0 0 23 28" version="1.1" xmlns="http://www.w3.org/2000/svg" xmlns:xlink="http://www.w3.org/1999/xlink">
    <!-- Generator: Sketch 49.3 (51167) - http://www.bohemiancoding.com/sketch -->
    <title>file-rounded-outlined-symbol</title>
    <desc>Created with Sketch.</desc>
    <defs></defs>
    <g id="Page-1" stroke="none" stroke-width="1" fill="none" fill-rule="evenodd">
        <g id="Artboard-Copy" transform="translate(-3.000000, 0.000000)" fill="#A9B4BF" fill-rule="nonzero">
            <g id="file-rounded-outlined-symbol" transform="translate(3.000000, 0.000000)">
                <path d="M16.6331141,19.2348488 L6.14384615,19.2348488 C5.66134748,19.2348488 5.26975597,19.6264775 5.26975597,20.1089761 C5.26975597,20.5914748 5.66134748,20.9830663 6.14384615,20.9830663 L16.6331141,20.9830663 C17.1156127,20.9830663 17.5072414,20.5914748 17.5072414,20.1089761 C17.5072414,19.6264775 17.1156127,19.2348488 16.6331141,19.2348488 Z M15.7590239,0.0044933687 L15.7590239,0.0298567639 C15.6462812,0.0298567639 15.1812361,-0.0138514589 14.0108064,0.0044933687 L3.52153846,0.0044933687 C1.59061538,0.0044933687 0.0251034483,1.57000531 0.0251034483,3.50092838 L0.0251034483,24.4795013 C0.0251034483,26.4103873 1.59061538,27.9758992 3.52153846,27.9758992 L19.2554589,27.9758992 C21.186382,27.9758992 22.7518939,26.4103873 22.7518939,24.4795013 L22.7518939,6.99732626 L15.7590239,0.0044933687 Z M21.0036764,24.4795013 C21.0036764,25.4444987 20.2213846,26.2277188 19.2554589,26.2277188 L3.52153846,26.2277188 C2.55564987,26.2277188 1.77332095,25.4444987 1.77332095,24.4795013 L1.77332095,3.50092838 C1.77332095,2.53503979 2.55564987,1.75271088 3.52153846,1.75271088 L13.9863342,1.75271088 C13.9705889,3.8462122 14.0108064,5.24914589 14.0108064,5.24914589 C14.0108064,7.18006897 15.5763183,8.7455809 17.5072414,8.7455809 C17.5072414,8.7455809 18.9678462,8.7455809 21.0036393,8.7455809 L21.0036393,24.4795013 L21.0036764,24.4795013 Z M17.5072414,6.9973634 C16.5413156,6.9973634 15.7590239,6.21418037 15.7590239,5.24914589 C15.7590239,5.24914589 15.7590239,3.83395756 15.7590239,1.75271088 L21.0036393,6.9973634 L17.5072414,6.99732626 L17.5072414,6.9973634 Z M16.6331141,13.9901963 L6.14384615,13.9901963 C5.66134748,13.9901963 5.26975597,14.3818249 5.26975597,14.8643236 C5.26975597,15.3468223 5.66134748,15.7384138 6.14384615,15.7384138 L16.6331141,15.7384138 C17.1156127,15.7384138 17.5072414,15.3468223 17.5072414,14.8643236 C17.5072414,14.3818249 17.1156127,13.9901963 16.6331141,13.9901963 Z" id="Shape"></path>
            </g>
        </g>
    </g>
</svg>