<?xml version="1.0" encoding="UTF-8"?>
<svg width="11px" height="16px" viewBox="0 0 11 16" version="1.1" xmlns="http://www.w3.org/2000/svg" xmlns:xlink="http://www.w3.org/1999/xlink">
    <!-- Generator: Sketch 49.3 (51167) - http://www.bohemiancoding.com/sketch -->
    <title>Page 1</title>
    <desc>Created with Sketch.</desc>
    <defs></defs>
    <g id="Desktop-Design" stroke="none" stroke-width="1" fill="none" fill-rule="evenodd">
        <g id="5-Supplied" transform="translate(-1127.000000, -1119.000000)" fill="#6EC5AB">
            <g id="Group-11" transform="translate(223.000000, 1116.000000)">
                <g id="Group-10" transform="translate(904.000000, 3.000000)">
                    <path d="M7.44433524,7.21874985 C7.98144628,6.69791486 8.2499982,6.06944787 8.2499982,5.33333256 C8.2499982,4.59721957 7.98144628,3.96875258 7.44433524,3.44791759 C6.9072242,2.92708027 6.25911766,2.66666628 5.4999988,2.66666628 C4.74088234,2.66666628 4.0927758,2.92708027 3.55566476,3.44791759 C3.01855131,3.96875258 2.7499994,4.59721957 2.7499994,5.33333256 C2.7499994,6.06944787 3.01855131,6.69791486 3.55566476,7.21874985 C4.0927758,7.73958717 4.74088234,8.00000117 5.4999988,8.00000117 C6.25911766,8.00000117 6.9072242,7.73958717 7.44433524,7.21874985 Z M11,5.33333256 C11,6.09028221 10.8818363,6.71180286 10.6455065,7.19791785 L6.73535059,15.2604166 C6.62076738,15.4895845 6.45068402,15.6701383 6.2250981,15.8020833 C5.99950978,15.9340284 5.75781402,16 5.4999988,16 C5.24218598,16 5.00048781,15.9340284 4.7749019,15.8020833 C4.54931598,15.6701383 4.38281312,15.4895845 4.27539091,15.2604166 L0.354492086,7.19791785 C0.118162865,6.71180286 0,6.09028221 0,5.33333256 C0,3.86110425 0.537104065,2.60417261 1.61132808,1.5625003 C2.68555281,0.520827989 3.98176347,0 5.4999988,0 C7.01823653,0 8.31444719,0.520827989 9.38867168,1.5625003 C10.4628962,2.60417261 11,3.86110425 11,5.33333256 Z" id="Page-1"></path>
                </g>
            </g>
        </g>
    </g>
</svg>