<?xml version="1.0" encoding="UTF-8"?>
<svg width="18px" height="15px" viewBox="0 0 18 15" version="1.1" xmlns="http://www.w3.org/2000/svg" xmlns:xlink="http://www.w3.org/1999/xlink">
    <!-- Generator: Sketch 49.3 (51167) - http://www.bohemiancoding.com/sketch -->
    <title>Page 1</title>
    <desc>Created with Sketch.</desc>
    <defs></defs>
    <g id="Desktop-Design" stroke="none" stroke-width="1" fill="none" fill-rule="evenodd">
        <g id="5-Supplied" transform="translate(-938.000000, -2021.000000)" fill="#394C5D">
            <g id="Group-5" transform="translate(0.000000, 1828.000000)">
                <path d="M955.507812,193.288462 C954.781247,193.721156 953.996098,194.021634 953.152344,194.189904 C952.425778,193.39663 951.523443,193 950.445312,193 C949.437495,193 948.570315,193.372593 947.84375,194.117788 C947.117185,194.862984 946.753906,195.752398 946.753906,196.786058 C946.753906,197.074522 946.789062,197.362978 946.859375,197.651442 C945.359367,197.579327 943.947272,197.194715 942.623046,196.497596 C941.298822,195.800477 940.179692,194.862986 939.265625,193.685096 C938.914061,194.262022 938.738281,194.899035 938.738281,195.596154 C938.738281,196.942314 939.289057,197.987978 940.390625,198.733173 C939.804685,198.733173 939.253909,198.576924 938.738281,198.264423 L938.738281,198.336538 C938.738281,199.225967 939.013669,200.019227 939.564453,200.716346 C940.115237,201.413465 940.824214,201.858172 941.691406,202.050481 C941.36328,202.122596 941.035158,202.158654 940.707031,202.158654 C940.472655,202.158654 940.238282,202.134615 940.003906,202.086538 C940.26172,202.855773 940.701168,203.486777 941.322267,203.979566 C941.943364,204.472358 942.652341,204.71875 943.449219,204.71875 C942.113274,205.800486 940.589851,206.341346 938.878906,206.341346 C938.597655,206.341346 938.304689,206.329327 938,206.305288 C939.734384,207.435102 941.621083,208 943.660156,208 C945.300789,208 946.800774,207.675484 948.160156,207.026442 C949.519539,206.377401 950.626948,205.530054 951.482421,204.484374 C952.337896,203.438696 952.999998,202.284862 953.46875,201.022835 C953.937502,199.760812 954.171875,198.492795 954.171875,197.21875 C954.171875,197.05048 954.171875,196.894231 954.171875,196.75 C954.89844,196.197112 955.50781,195.536062 956,194.766827 C955.320309,195.079328 954.61719,195.283653 953.890625,195.379808 C954.687503,194.874998 955.22656,194.17789 955.507812,193.288462 Z" id="Page-1"></path>
            </g>
        </g>
    </g>
</svg>